#!OML:ASF I:\golf\golf\golf 2\Subject 1\2002-09-07\Subject1.ASF
:FULLY-SPECIFIED
:DEGREES
478
root -5.51054 18.0181 -3.85536 -167.466 -2.85133 -176.692
lowerback -10.3344 15.5408 13.093
upperback -13.6456 17.7169 -0.962377
thorax -5.06644 6.85011 -6.05745
lowerneck -12.9366 -19.5022 -3.26552
upperneck 7.71174 -26.383 4.67315
head 5.36527 -12.7881 -0.471352
rclavicle -1.63997e-013 -8.74653e-014
rhumerus 104.54 21.1671 -50.051
rradius 62.2013
rwrist -8.50811
rhand -47.5639 48.8153
rfingers 7.12502
rthumb -20.2493 19.8508
lclavicle -1.63997e-013 -8.74653e-014
lhumerus 60.9149 24.8236 39.3415
lradius 65.6066
lwrist 17.0415
lhand -32.6557 14.5786
lfingers 7.12502
lthumb -185.882 -135.523
rfemur 25.3364 -13.0427 18.1222
rtibia 3.81667e-014
rfoot 39.9119 -27.209
rtoes 33.8089
lfemur -27.7634 -18.5484 -13.9716
ltibia 27.0162
lfoot 36.7574 -44.7884
ltoes 54.0571
479
root -5.49889 18.024 -3.84209 -167.479 -2.7391 -176.576
lowerback -10.249 15.52 13.1965
upperback -13.5752 17.7104 -0.925193
thorax -5.01916 6.85296 -6.07911
lowerneck -12.9739 -19.4628 -3.33227
upperneck 7.76268 -26.3255 4.7116
head 5.39925 -12.7559 -0.456785
rclavicle -1.25234e-014 -4.77083e-015
rhumerus 104.42 20.9904 -49.832
rradius 61.3796
rwrist -9.16531
rhand -47.4713 48.2771
rfingers 7.12502
rthumb -20.1603 19.3031
lclavicle -1.25234e-014 -4.77083e-015
lhumerus 60.9149 24.2734 39.088
lradius 64.8726
lwrist 17.6551
lhand -32.453 14.4986
lfingers 7.12502
lthumb -185.686 -135.598
rfemur 25.292 -12.9363 18.2836
rtibia -3.18055e-014
rfoot 40.1184 -26.8034
rtoes 32.8437
lfemur -27.8073 -18.5166 -13.7977
ltibia 27.0473
lfoot 36.399 -44.8751
ltoes 53.9856
480
root -5.48713 18.0311 -3.82879 -167.446 -2.66584 -176.37
lowerback -10.2028 15.5105 13.4075
upperback -13.567 17.6917 -0.911131
thorax -4.98945 6.82885 -6.17149
lowerneck -12.8763 -19.3801 -3.25057
upperneck 7.75809 -26.2181 4.63679
head 5.35917 -12.7106 -0.461397
rclavicle 7.87187e-014 4.49253e-014
rhumerus 104.147 21.0851 -50.003
rradius 60.6345
rwrist -9.4764
rhand -47.3983 47.8142
rfingers 7.12502
rthumb -20.0902 18.833
lclavicle 7.87187e-014 4.49253e-014
lhumerus 60.8901 23.6028 38.6957
lradius 64.1069
lwrist 18.3928
lhand -32.4106 14.3462
lfingers 7.12502
lthumb -185.645 -135.749
rfemur 25.1975 -12.8534 18.5602
rtibia 3.18055e-015
rfoot 40.0231 -26.8536
rtoes 32.8505
lfemur -27.9357 -18.4865 -13.4963
ltibia 27.1077
lfoot 36.007 -45.0495
ltoes 53.7138
481
root -5.47557 18.0381 -3.81557 -167.42 -2.52326 -176.213
lowerback -10.1373 15.489 13.5819
upperback -13.5567 17.6652 -0.912486
thorax -4.9732 6.80339 -6.26932
lowerneck -12.7257 -19.2689 -3.24104
upperneck 7.76458 -26.0728 4.61872
head 5.33041 -12.646 -0.437125
rclavicle -1.12115e-013 -1.05753e-013
rhumerus 103.767 21.2596 -50.3398
rradius 60.0338
rwrist -9.71593
rhand -47.0631 47.1356
rfingers 7.12502
rthumb -19.7679 18.1208
lclavicle -1.12115e-013 -1.05753e-013
lhumerus 60.8364 22.9441 38.2083
lradius 63.4177
lwrist 19.2748
lhand -32.3009 14.3623
lfingers 7.12502
lthumb -185.539 -135.73
rfemur 25.1049 -12.7096 18.7639
rtibia 2.54444e-014
rfoot 40.0042 -26.7364
rtoes 32.7303
lfemur -28.0293 -18.4844 -13.2444
ltibia 27.1777
lfoot 35.5196 -45.1367
ltoes 53.5184
482
root -5.4652 18.0403 -3.80239 -167.478 -2.32822 -176.068
lowerback -10.0579 15.4335 13.7195
upperback -13.442 17.6105 -0.827102
thorax -4.88908 6.78708 -6.26067
lowerneck -12.873 -19.1499 -3.146
upperneck 7.91222 -25.9108 4.48755
head 5.3655 -12.5647 -0.48574
rclavicle -1.2921e-014 -6.44062e-014
rhumerus 103.534 21.3212 -50.4399
rradius 59.476
rwrist -10.1084
rhand -46.465 46.23
rfingers 7.12502
rthumb -19.1929 17.157
lclavicle -1.2921e-014 -6.44062e-014
lhumerus 60.7664 22.4516 37.8128
lradius 62.7817
lwrist 20.2125
lhand -31.9762 14.4504
lfingers 7.12502
lthumb -185.226 -135.634
rfemur 25.1087 -12.5112 18.9138
rtibia 7.95139e-014
rfoot 39.9122 -26.802
rtoes 32.498
lfemur -27.9786 -18.4375 -13.073
ltibia 27.212
lfoot 35.1626 -45.1095
ltoes 53.3858
483
root -5.45461 18.0417 -3.78527 -167.488 -2.21836 -175.954
lowerback -10.0082 15.3517 13.7633
upperback -13.3445 17.5158 -0.702211
thorax -4.85207 6.75162 -6.17444
lowerneck -12.9618 -19.0809 -3.2461
upperneck 8.08153 -25.7999 4.44114
head 5.43559 -12.5067 -0.496251
rclavicle 8.56762e-014 5.12864e-014
rhumerus 103.405 21.461 -50.4097
rradius 58.7759
rwrist -10.4937
rhand -46.1262 45.5875
rfingers 7.12502
rthumb -18.8671 16.4825
lclavicle 8.56762e-014 5.12864e-014
lhumerus 60.6114 21.9468 37.4754
lradius 62.1574
lwrist 21.2692
lhand -31.5624 14.4323
lfingers 7.12502
lthumb -184.826 -135.643
rfemur 25.0669 -12.4039 19.0637
rtibia -4.13472e-014
rfoot 39.7327 -27.0741
rtoes 32.3531
lfemur -27.9841 -18.3336 -12.9207
ltibia 27.1946
lfoot 35.0506 -45.1279
ltoes 53.1279
484
root -5.44384 18.0464 -3.76632 -167.407 -2.14696 -175.945
lowerback -9.96028 15.258 13.6853
upperback -13.3482 17.4039 -0.646295
thorax -4.93883 6.69418 -6.11869
lowerneck -12.9038 -18.9596 -3.22304
upperneck 8.13523 -25.6245 4.3271
head 5.42025 -12.4278 -0.506432
rclavicle -5.66536e-014 -4.96962e-014
rhumerus 103.21 21.7213 -50.4872
rradius 57.9986
rwrist -10.8473
rhand -46.0583 45.1627
rfingers 7.12502
rthumb -18.8018 16.0513
lclavicle -5.66536e-014 -4.96962e-014
lhumerus 60.4579 21.2967 37.2094
lradius 61.5343
lwrist 22.0592
lhand -31.0816 14.5311
lfingers 7.12502
lthumb -184.362 -135.534
rfemur 24.93 -12.3571 19.1349
rtibia 6.36111e-014
rfoot 39.6697 -27.2022
rtoes 32.4599
lfemur -28.0912 -18.2252 -12.8441
ltibia 27.1478
lfoot 35.0745 -45.1617
ltoes 53.0328
485
root -5.43796 18.048 -3.75402 -167.406 -1.92333 -175.991
lowerback -9.90227 15.1836 13.6398
upperback -13.3009 17.325 -0.618437
thorax -4.94996 6.66349 -6.09441
lowerneck -12.8781 -18.815 -3.19812
upperneck 8.18828 -25.4292 4.27647
head 5.41789 -12.335 -0.502009
rclavicle -4.41302e-014 -5.20816e-014
rhumerus 102.959 21.9673 -50.6421
rradius 57.3451
rwrist -11.2252
rhand -45.9493 44.4678
rfingers 7.12502
rthumb -18.6969 15.3463
lclavicle -4.41302e-014 -5.20816e-014
lhumerus 60.3554 20.6479 36.9723
lradius 60.9001
lwrist 22.6237
lhand -30.5175 14.7554
lfingers 7.12502
lthumb -183.817 -135.299
rfemur 24.8849 -12.1596 19.0672
rtibia 6.36111e-015
rfoot 39.6165 -27.4176
rtoes 32.9593
lfemur -28.0533 -18.2248 -12.8818
ltibia 27.0823
lfoot 34.7992 -45.0917
ltoes 53.0405
486
root -5.43165 18.0468 -3.74252 -167.437 -1.71241 -175.948
lowerback -9.8611 15.1284 13.6849
upperback -13.2044 17.2656 -0.555588
thorax -4.88253 6.6475 -6.06125
lowerneck -13.0238 -18.7049 -3.30166
upperneck 8.40565 -25.2745 4.2816
head 5.51851 -12.2507 -0.502648
rclavicle -6.50026e-014 -5.725e-014
rhumerus 102.661 22.1015 -50.6745
rradius 56.8337
rwrist -11.7507
rhand -45.7684 43.8451
rfingers 7.12502
rthumb -18.5229 14.707
lclavicle -6.50026e-014 -5.725e-014
lhumerus 60.2188 20.0372 36.7098
lradius 60.3561
lwrist 23.3862
lhand -30.2173 14.8088
lfingers 7.12502
lthumb -183.527 -135.241
rfemur 24.864 -11.9589 19.095
rtibia 6.04305e-014
rfoot 39.6974 -27.4915
rtoes 33.2175
lfemur -27.976 -18.2449 -12.8138
ltibia 26.9918
lfoot 34.4715 -44.9741
ltoes 53.015
487
root -5.42318 18.0515 -3.72255 -167.37 -1.6378 -175.882
lowerback -9.79759 15.0861 13.7495
upperback -13.1527 17.2261 -0.535319
thorax -4.8557 6.63215 -6.0864
lowerneck -13.1837 -18.6186 -3.31811
upperneck 8.54208 -25.1381 4.1878
head 5.57202 -12.181 -0.534344
rclavicle 2.72335e-014 -1.55052e-014
rhumerus 102.337 22.1206 -50.6156
rradius 56.3094
rwrist -12.2426
rhand -45.6664 43.3201
rfingers 7.12502
rthumb -18.4248 14.1727
lclavicle 2.72335e-014 -1.55052e-014
lhumerus 60.1968 19.432 36.7221
lradius 59.8945
lwrist 24.1266
lhand -29.9601 14.7465
lfingers 7.12502
lthumb -183.279 -135.299
rfemur 24.7167 -11.8938 19.2089
rtibia 4.13472e-014
rfoot 40.0383 -27.1031
rtoes 32.7707
lfemur -28.0536 -18.1701 -12.6856
ltibia 26.9008
lfoot 34.4536 -44.906
ltoes 53.0261
488
root -5.4202 18.0608 -3.70223 -167.282 -1.48554 -175.951
lowerback -9.74042 15.08 13.788
upperback -13.0752 17.2432 -0.591592
thorax -4.76838 6.65585 -6.16074
lowerneck -13.3594 -18.5402 -3.17679
upperneck 8.59802 -25.0103 3.97299
head 5.56754 -12.1219 -0.609237
rclavicle -9.323e-014 -6.04305e-014
rhumerus 102.069 22.0455 -50.5283
rradius 55.7074
rwrist -12.619
rhand -45.6341 42.6084
rfingers 7.12502
rthumb -18.3938 13.4581
lclavicle -9.323e-014 -6.04305e-014
lhumerus 60.3183 18.8502 37.0472
lradius 59.4471
lwrist 24.7396
lhand -29.2142 14.737
lfingers 7.12502
lthumb -182.559 -135.299
rfemur 24.5489 -11.7656 19.1332
rtibia -6.04305e-014
rfoot 40.2827 -26.7213
rtoes 32.0369
lfemur -28.1367 -18.2025 -12.7245
ltibia 26.8295
lfoot 34.0492 -44.9577
ltoes 52.8528
489
root -5.41644 18.0674 -3.68836 -167.288 -1.24484 -175.937
lowerback -9.75949 15.0828 13.8697
upperback -12.9038 17.2552 -0.557916
thorax -4.5543 6.6931 -6.13546
lowerneck -13.5945 -18.4699 -3.14242
upperneck 8.70509 -24.8865 3.82128
head 5.61015 -12.0594 -0.66714
rclavicle 3.4191e-014 -1.51076e-014
rhumerus 101.862 21.9723 -50.3557
rradius 55.128
rwrist -13.0175
rhand -45.5852 42.0447
rfingers 7.12502
rthumb -18.3467 12.8899
lclavicle 3.4191e-014 -1.51076e-014
lhumerus 60.4885 18.2806 37.4589
lradius 58.8779
lwrist 25.2036
lhand -28.2066 14.6241
lfingers 7.12502
lthumb -181.585 -135.402
rfemur 24.4967 -11.5344 19.1079
rtibia 3.81667e-014
rfoot 40.3454 -26.5324
rtoes 31.5065
lfemur -28.0827 -18.296 -12.683
ltibia 26.7625
lfoot 33.3612 -45.0193
ltoes 52.5661
